<svg width="44" height="43" viewBox="0 0 44 43" fill="none" xmlns="http://www.w3.org/2000/svg">
<path d="M22.6927 42.2095C22.59 42.009 22.5153 41.8319 22.4686 41.6827L11.0826 15.6303C10.2796 16.3856 9.50001 17.1875 8.74375 18.0407C7.98748 18.8939 7.23588 19.7703 6.48428 20.6748L3.16512 18.2645C5.07445 15.9054 7.16119 13.7981 9.42065 11.9378L7.68871 7.94701C7.23588 6.94463 6.7317 6.21733 6.18084 5.7651C5.62531 5.31286 5.08846 5.00049 4.56094 4.82333C4.03342 4.64617 3.54325 4.52029 3.09042 4.44569C2.6376 4.3711 2.31081 4.17995 2.11008 3.88157L0 0.79519H22.0158C20.9094 1.34999 20.0317 1.83952 19.3782 2.26378C18.7246 2.69271 18.2484 3.10298 17.945 3.50393C17.6415 3.90488 17.4922 4.31981 17.4922 4.74407C17.4922 5.173 17.5902 5.68584 17.7956 6.28726C21.3108 4.38042 24.7794 3.00041 28.2013 2.14723C31.6185 1.29404 34.7602 0.841812 37.6266 0.790527C39.9374 0.790527 41.5713 1.24276 42.5283 2.14723C43.4806 3.05169 43.9708 4.24522 43.9988 5.72314C44.0222 7.20572 43.6954 8.88411 43.0185 10.7676C42.3416 12.6512 41.4966 14.572 40.4929 16.5255L27.4403 42.2095H22.6927ZM35.6612 16.7586C37.1691 14.3016 38.2615 12.1803 38.9431 10.3947C39.62 8.6137 39.9841 7.11713 40.0354 5.91429C40.0868 4.71144 39.886 3.79298 39.4332 3.16825C38.9804 2.53885 38.3502 2.17986 37.5472 2.07729C36.6929 1.97939 35.6099 2.02601 34.3074 2.22649C33.0003 2.42696 31.5438 2.81858 29.9332 3.39204C28.3226 3.97015 26.5907 4.72076 24.7327 5.6532C22.8747 6.58098 20.9654 7.72322 19.0047 9.07992L28.0519 29.3325L35.6612 16.7586Z" fill="white"/>
</svg>
